<svg width="16" height="8" viewBox="0 0 16 8" fill="none" xmlns="http://www.w3.org/2000/svg">
<path d="M14.8894 7.82064L7.99929 1.44473L1.10916 7.82064C0.986054 7.93479 0.820797 7.99869 0.648713 7.99869C0.476628 7.99869 0.311372 7.93479 0.188268 7.82064C0.128661 7.7652 0.0813067 7.69902 0.0489791 7.62599C0.0166514 7.55296 0 7.47454 0 7.39532C0 7.3161 0.0166514 7.23768 0.0489791 7.16464C0.0813067 7.09161 0.128661 7.02544 0.188268 6.97L7.51817 0.18577C7.64689 0.0666614 7.81954 0 7.99929 0C8.17905 0 8.3517 0.0666614 8.48042 0.18577L15.8103 6.96869C15.8703 7.02417 15.9181 7.09051 15.9506 7.16378C15.9832 7.23706 16 7.31578 16 7.39532C16 7.47485 15.9832 7.55358 15.9506 7.62686C15.9181 7.70013 15.8703 7.76647 15.8103 7.82195C15.6872 7.9361 15.522 8 15.3499 8C15.1778 8 15.0125 7.9361 14.8894 7.82195V7.82064Z" fill="#01FFF0"/>
</svg>
