<svg width="32" height="30" viewBox="0 0 32 30" fill="none" xmlns="http://www.w3.org/2000/svg">
<ellipse cx="15.6" cy="15" rx="15.6" ry="15" fill="#EC008C"/>
<path d="M8.96183 13.3375H17.3954V12.2893H8.96183L11.0189 10.3343C11.0703 10.2855 11.1109 10.2275 11.1386 10.1638C11.1662 10.1001 11.1803 10.0319 11.18 9.96299C11.1798 9.89412 11.1652 9.82598 11.1371 9.76245C11.1089 9.69892 11.0679 9.64124 11.0162 9.59272C10.9645 9.54419 10.9032 9.50577 10.8357 9.47964C10.7683 9.45351 10.6961 9.44019 10.6233 9.44043C10.5504 9.44068 10.4783 9.45448 10.4111 9.48106C10.3439 9.50764 10.2829 9.54647 10.2316 9.59534L6.84375 12.8134L10.2316 16.0315C10.2809 16.0866 10.3417 16.1316 10.4103 16.1635C10.4788 16.1954 10.5536 16.2135 10.6299 16.2168C10.7062 16.2201 10.7825 16.2085 10.8538 16.1826C10.9251 16.1567 10.99 16.1172 11.0444 16.0665C11.0988 16.0158 11.1416 15.955 11.17 15.8879C11.1983 15.8209 11.2117 15.749 11.2094 15.6768C11.207 15.6046 11.1888 15.5337 11.156 15.4685C11.1233 15.4032 11.0766 15.3451 11.0189 15.2977L8.96183 13.3375Z" fill="white"/>
<path d="M18.5479 12.2881H20.2113V13.3363H18.5479V12.2881Z" fill="white"/>
<path d="M21.3213 12.2881H22.4302V13.3363H21.3213V12.2881Z" fill="white"/>
<path d="M21.2761 15.3619C21.2248 15.3131 21.1637 15.2742 21.0965 15.2477C21.0293 15.2211 20.9572 15.2073 20.8844 15.207C20.8115 15.2068 20.7393 15.2201 20.6719 15.2462C20.6045 15.2724 20.5432 15.3108 20.4915 15.3593C20.4398 15.4078 20.3987 15.4655 20.3706 15.529C20.3425 15.5926 20.3279 15.6607 20.3276 15.7296C20.3274 15.7985 20.3415 15.8667 20.3691 15.9304C20.3968 15.9941 20.4374 16.0521 20.4887 16.1009L22.5458 18.0559H14.1123V19.1041H22.5458L20.4887 21.0643C20.4311 21.1117 20.3844 21.1698 20.3516 21.235C20.3189 21.3003 20.3007 21.3712 20.2983 21.4434C20.2959 21.5156 20.3093 21.5875 20.3377 21.6545C20.3661 21.7216 20.4088 21.7824 20.4632 21.8331C20.5176 21.8838 20.5825 21.9233 20.6539 21.9492C20.7252 21.975 20.8014 21.9867 20.8777 21.9834C20.9541 21.9801 21.0289 21.962 21.0974 21.9301C21.1659 21.8982 21.2268 21.8532 21.2761 21.798L24.6473 18.58L21.2761 15.3619Z" fill="white"/>
<path d="M11.3408 18.0557H13.0042V19.1039H11.3408V18.0557Z" fill="white"/>
<path d="M9.12207 18.0557H10.231V19.1039H9.12207V18.0557Z" fill="white"/>
</svg>
